<mxfile host="app.diagrams.net" modified="2024-04-03T12:00:52.755Z" agent="Mozilla/5.0 (Windows NT 10.0; Win64; x64) AppleWebKit/537.36 (KHTML, like Gecko) Chrome/123.0.0.0 Safari/537.36" version="24.0.7" etag="odSxXB2fz6quuLQ29LkB" type="github">
  <diagram name="Page-1" id="38tl4IO7n86vCplZNG8w">
    <mxGraphModel>
      <root>
        <mxCell id="0" />
        <mxCell id="1" parent="0" />
      </root>
    </mxGraphModel>
  </diagram>
</mxfile>
